<svg width="16" height="20" viewBox="0 0 16 20" fill="none" xmlns="http://www.w3.org/2000/svg">
<path fill-rule="evenodd" clip-rule="evenodd" d="M0 1.12921C0 0.998209 0.158999 0.932209 0.250999 1.02521L8.159 8.95021C8.59 9.38221 8.284 10.1192 7.674 10.1192L4.97 10.1177L8.24 17.613C8.467 18.153 8.213 18.774 7.674 19C7.133 19.227 6.513 18.974 6.287 18.435L2.999 10.8917L1.139 12.5392C0.723 12.9072 0.081118 12.6507 0.00704193 12.1274L0 12.0262V1.12921Z" fill="black"/>
<path d="M10.5874 15.7925L10.5945 15.7419C10.6756 15.2053 10.792 14.7856 10.9436 14.4828C11.0952 14.1799 11.2833 13.9438 11.5079 13.7746C11.7325 13.6053 11.9943 13.4571 12.2933 13.3298C12.4735 13.2519 12.6394 13.1533 12.791 13.034C12.943 12.9119 13.0699 12.7648 13.1715 12.5926C13.276 12.4208 13.3438 12.2238 13.3751 12.0016C13.4138 11.7259 13.3827 11.4776 13.2818 11.2569C13.1808 11.0361 13.0298 10.8557 12.8286 10.7155C12.6274 10.5754 12.3945 10.4867 12.1301 10.4495C11.8994 10.4171 11.6704 10.4337 11.4432 10.4993C11.2159 10.5649 11.0161 10.6903 10.8438 10.8755C10.6715 11.0607 10.5507 11.3177 10.4815 11.6465L9.41813 11.4971C9.50785 11.022 9.68916 10.6301 9.96206 10.3213C10.2378 10.0129 10.574 9.79478 10.9706 9.66693C11.3701 9.53946 11.7977 9.50776 12.2534 9.57181C12.7486 9.64139 13.1652 9.80035 13.5032 10.0487C13.8441 10.2974 14.0903 10.6074 14.2418 10.9787C14.3961 11.3504 14.4424 11.7557 14.3807 12.1945C14.3372 12.504 14.2501 12.7772 14.1192 13.0141C13.9912 13.2515 13.8247 13.4561 13.6198 13.6282C13.4177 13.8006 13.1822 13.9453 12.9133 14.0625C12.644 14.1824 12.4227 14.3177 12.2495 14.4683C12.0767 14.6162 11.9401 14.8021 11.8398 15.0261C11.7394 15.2501 11.6619 15.5362 11.6073 15.8842L11.6002 15.9349L10.5874 15.7925ZM10.7764 18.3666C10.5683 18.3374 10.4001 18.2377 10.2719 18.0676C10.1438 17.8976 10.0943 17.7085 10.1236 17.5003C10.1529 17.2921 10.2525 17.1239 10.4226 16.9958C10.5926 16.8676 10.7818 16.8182 10.9899 16.8474C11.1981 16.8767 11.3663 16.9764 11.4944 17.1464C11.6226 17.3165 11.672 17.5056 11.6428 17.7138C11.6234 17.8516 11.5704 17.9733 11.4839 18.0787C11.4002 18.1846 11.2957 18.2646 11.1705 18.3187C11.0484 18.3704 10.9171 18.3864 10.7764 18.3666Z" fill="black"/>
</svg>
